# xmcd
#
# Track frame offsets:
#	150
#	15433
#	29710
#	51779
#	72702
#	90347
#	110118
#	132564
#	153561
#	166983
#	184608
#	199211
#
# Disc length: 2926 seconds
#
# Revision: 1
# Processed by: cddbd v1.5.1PL2 Copyright (c) Steve Scherf et al.
# Submitted via: audiograbber 1.83.01
#
DISCID=aa0b6c0c
DTITLE=Vivian Campbell - Two Sides Of If
DYEAR=2005
DGENRE=Blues
TTITLE0=Messin' With The Kid
TTITLE1=I'm Ready
TTITLE2=Calling Card
TTITLE3=Come On In My Kitchen
TTITLE4=The Hunter
TTITLE5=Like It This Way
TTITLE6=I Ain't Superstitious
TTITLE7=Spoonful
TTITLE8=Reconsider Baby
TTITLE9=Good Or Bad Times
TTITLE10=32/20 Blues
TTITLE11=Willin' For Satisfaction
EXTD=
EXTT0=
EXTT1=
EXTT2=
EXTT3=
EXTT4=
EXTT5=
EXTT6=
EXTT7=
EXTT8=
EXTT9=
EXTT10=
EXTT11=
PLAYORDER=
